<svg version="1.1" id="Ebene_1" xmlns="http://www.w3.org/2000/svg" xmlns:xlink="http://www.w3.org/1999/xlink" x="0px" y="0px"
	 viewBox="0 0 1024 1024" style="enable-background:new 0 0 1024 1024;" xml:space="preserve">
<g>
	<path class="social-icon" d="M512,0C229.2,0,0,229.2,0,512c0,255.6,187.2,467.4,432,505.8V660H302V512h130V399.2c0-12,0.7-23.6,2-34.6
		c0.9-7.3,2-14.4,3.5-21.3c4.7-22.4,12.3-42.2,22.5-59.6c0.8-1.3,1.6-2.7,2.4-4c1.6-2.6,3.3-5.1,5.1-7.6c4.4-6.2,9.2-12,14.3-17.5
		c8.2-8.7,17.3-16.4,27.3-23c3.7-2.5,7.6-4.9,11.6-7.1c14.6-8.1,30.7-14.2,48.3-18.4c3.2-0.7,6.4-1.4,9.7-2s6.6-1.2,10-1.6
		c3.4-0.5,6.8-0.9,10.2-1.2c8.6-0.9,17.5-1.3,26.7-1.3c56,0,114.6,10,114.6,10v126h-64.6c-2,0-3.9,0-5.8,0.1
		c-1.9,0.1-3.8,0.2-5.6,0.3s-3.6,0.3-5.3,0.6c-5.2,0.7-10.1,1.6-14.6,2.9c-3.8,1.1-7.3,2.3-10.5,3.7c-2.6,1.1-5.1,2.4-7.4,3.8
		c-1.8,1-3.4,2.1-5,3.2s-3.1,2.3-4.6,3.6c-0.5,0.4-1,0.8-1.4,1.3c-0.9,0.8-1.8,1.7-2.7,2.6c-0.4,0.4-0.9,0.9-1.3,1.4
		c-0.8,0.9-1.6,1.8-2.4,2.8c-0.8,1-1.5,1.9-2.2,2.9s-1.4,2-2.1,3c-0.3,0.5-0.6,1-1,1.6c-0.6,1-1.2,2.1-1.8,3.2
		c-0.3,0.5-0.6,1.1-0.8,1.6c-0.5,1.1-1.1,2.2-1.5,3.3c-0.5,1.1-0.9,2.2-1.4,3.4c-0.4,1.1-0.8,2.3-1.2,3.5c-0.2,0.6-0.4,1.2-0.6,1.8
		c-0.4,1.2-0.7,2.4-1,3.6c-1.2,4.8-2.1,9.7-2.6,14.7c-0.1,1.2-0.2,2.5-0.3,3.8c-0.2,2.5-0.2,5-0.2,7.6v96h142l-22.7,148H592v357.8
		c244.8-38.4,432-250.2,432-505.8C1024,229.2,794.8,0,512,0z"/>
</g>
</svg>
