<svg version="1.1" id="Logo" xmlns="http://www.w3.org/2000/svg" xmlns:xlink="http://www.w3.org/1999/xlink" x="0px" y="0px"
	 viewBox="0 0 512 512" style="enable-background:new 0 0 512 512;" xml:space="preserve">
<path class="social-icon" d="M496.5,134.2c-5.8-21.6-22.8-38.6-44.4-44.4C413,79.3,256,79.3,256,79.3s-157,0-196.1,10.5
	c-21.6,5.8-38.6,22.8-44.4,44.4C5,173.3,5,255,5,255s0,81.7,10.5,120.8c5.8,21.6,22.8,38.6,44.4,44.4C99,430.7,256,430.7,256,430.7
	s157,0,196.1-10.5c21.6-5.8,38.6-22.8,44.4-44.4C507,336.7,507,255,507,255S507,173.3,496.5,134.2z M205.8,330.3V179.7L336.2,255
	L205.8,330.3z"/>
</svg>
